<svg width="52" height="55" viewBox="0 0 52 55" fill="none" xmlns="http://www.w3.org/2000/svg">
<path d="M44.109 33.96C44.109 36.62 44.199 38.96 44.379 40.98C44.479 42.22 44.6191 43.14 44.799 43.74L46.809 32.34L51.849 31.38C49.829 39.12 48.499 45.91 47.859 51.75L43.239 53.04L42.849 52.02L41.319 47.67C41.019 46.83 40.869 46.38 40.869 46.32C40.509 48.34 40.189 50.58 39.909 53.04L35.229 54.45L39.099 32.4L44.169 31.38C44.129 32.18 44.109 33.04 44.109 33.96Z" fill="white"/>
<path d="M31.0951 32.34L36.1351 31.38C34.1151 39.12 32.7851 45.91 32.1451 51.75L27.4651 53.04L31.0951 32.34Z" fill="white"/>
<path d="M25.2039 30.93C26.5239 30.93 27.5039 31.16 28.1439 31.62C28.8039 32.06 29.1239 32.74 29.1039 33.66C29.0439 37.34 25.9439 41.16 19.8039 45.12C19.3639 47.62 19.0439 49.83 18.8439 51.75L14.1939 53.04C14.3139 52.18 14.5439 50.87 14.8839 49.11L16.1739 42.18C17.3139 35.78 17.8439 32.49 17.7639 32.31C20.7639 31.39 23.2439 30.93 25.2039 30.93ZM24.3939 37.02C24.3939 36.68 24.1439 36.51 23.6439 36.51C23.2439 36.51 22.5139 36.67 21.4539 36.99C21.3939 37.21 21.3239 37.53 21.2439 37.95C21.1639 38.35 21.1139 38.58 21.0939 38.64L20.7639 40.23C22.5439 39.35 23.7139 38.4 24.2739 37.38C24.3539 37.24 24.3939 37.12 24.3939 37.02Z" fill="white"/>
<path d="M7.45607 45.33C7.15607 45.33 6.35607 45.45 5.05607 45.69C3.75607 45.91 2.95607 46.02 2.65607 46.02C1.73607 46.02 1.05607 45.77 0.616072 45.27C0.156072 44.77 -0.0239284 44.09 0.0760716 43.23C0.316072 41.05 1.70607 38.54 4.24607 35.7C6.82607 32.8 9.06607 31.27 10.9661 31.11C12.7861 30.99 13.6961 32.35 13.6961 35.19C13.6961 35.77 13.6461 36.54 13.5461 37.5C13.3661 37.56 13.0261 37.69 12.5261 37.89C12.0461 38.09 11.6461 38.25 11.3261 38.37L9.10607 39.21C9.10607 38.29 8.85607 37.83 8.35607 37.83C7.75607 37.83 7.10607 38.16 6.40607 38.82C5.72607 39.48 5.43607 40.15 5.53607 40.83C5.59607 41.19 5.96607 41.37 6.64607 41.37C6.98607 41.37 7.60607 41.3 8.50607 41.16C9.40607 41.02 10.0161 40.95 10.3361 40.95C11.3961 40.95 12.1561 41.17 12.6161 41.61C13.0961 42.05 13.3361 42.76 13.3361 43.74C13.3361 44.98 12.8661 46.33 11.9261 47.79C10.7261 49.67 9.02607 51.26 6.82607 52.56C5.66607 53.26 4.53607 53.61 3.43607 53.61C2.43607 53.61 1.43607 53.32 0.436072 52.74C0.956072 51.5 1.73607 49.77 2.77607 47.55C3.43607 47.99 4.10607 48.21 4.78607 48.21C5.54607 48.21 6.37607 47.99 7.27607 47.55C8.19607 47.09 8.65607 46.6 8.65607 46.08C8.65607 45.58 8.25607 45.33 7.45607 45.33Z" fill="white"/>
<path d="M39.9571 3.96C39.9571 6.62 40.0471 8.96 40.2271 10.98C40.3271 12.22 40.4671 13.14 40.6471 13.74L42.6571 2.34001L47.6971 1.38C45.6771 9.12 44.3471 15.91 43.7071 21.75L39.0871 23.04L38.6971 22.02L37.1671 17.67C36.8671 16.83 36.7171 16.38 36.7171 16.32C36.3571 18.34 36.0371 20.58 35.7571 23.04L31.0771 24.45L34.9471 2.4L40.0171 1.38C39.9771 2.18 39.9571 3.04 39.9571 3.96Z" fill="white"/>
<path d="M26.9432 2.34001L31.9832 1.38C29.9632 9.12 28.6332 15.91 27.9932 21.75L23.3132 23.04L26.9432 2.34001Z" fill="white"/>
<path d="M24.958 1.2C22.338 8.12 20.378 14.94 19.078 21.66L12.508 22.77L13.588 12.03L10.858 21.99L4.61803 23.13C5.55803 15.63 6.01803 8.89 5.99803 2.91L11.578 1.86L10.438 14.7L14.218 0.45L17.218 0L15.208 18.09L19.258 2.1L24.958 1.2Z" fill="white"/>
</svg>
